<svg width="17" height="18" viewBox="0 0 17 18" fill="none" xmlns="http://www.w3.org/2000/svg">
<path d="M16.6437 14.0275C16.3385 14.6563 15.9772 15.2352 15.5586 15.7674C14.9881 16.4929 14.5209 16.9952 14.1609 17.274C13.6027 17.7318 13.0048 17.9662 12.3644 17.9796C11.9047 17.9796 11.3504 17.8629 10.705 17.6262C10.0576 17.3907 9.46262 17.274 8.91858 17.274C8.34801 17.274 7.73608 17.3907 7.08155 17.6262C6.42602 17.8629 5.89793 17.9862 5.49417 17.9985C4.88012 18.0218 4.26806 17.7807 3.65713 17.274C3.2672 16.9707 2.77947 16.4507 2.1952 15.7141C1.56832 14.9274 1.05294 14.0152 0.649179 12.9753C0.216767 11.852 0 10.7642 0 9.71115C0 8.50485 0.292262 7.46444 0.877657 6.59258C1.33773 5.89227 1.94978 5.33984 2.71581 4.9343C3.48185 4.52875 4.30955 4.32209 5.20091 4.30887C5.68863 4.30887 6.32822 4.44342 7.12303 4.70786C7.9156 4.97319 8.42451 5.10774 8.64763 5.10774C8.81444 5.10774 9.37978 4.95041 10.3382 4.63675C11.2445 4.34587 12.0094 4.22543 12.636 4.27287C14.334 4.39509 15.6097 4.99207 16.4581 6.0676C14.9395 6.88824 14.1883 8.03765 14.2032 9.51216C14.2169 10.6607 14.6841 11.6164 15.6022 12.3753C16.0183 12.7275 16.483 12.9997 17 13.193C16.8879 13.483 16.7695 13.7608 16.6437 14.0275ZM12.7494 0.360103C12.7494 1.26031 12.3806 2.10083 11.6456 2.8788C10.7586 3.80366 9.68574 4.33809 8.5223 4.25376C8.50748 4.14577 8.49888 4.0321 8.49888 3.91266C8.49888 3.04847 8.9207 2.1236 9.66979 1.3674C10.0438 0.984528 10.5194 0.666171 11.0962 0.412211C11.6718 0.162041 12.2162 0.0236918 12.7282 0C12.7431 0.120343 12.7494 0.240694 12.7494 0.360091V0.360103Z" fill="white"/>
</svg>
