<svg width="18" height="18" viewBox="0 0 18 18" fill="none" xmlns="http://www.w3.org/2000/svg">
<path fill-rule="evenodd" clip-rule="evenodd" d="M17.6397 9.20396C17.6397 8.5658 17.5824 7.95218 17.4761 7.36311H9V10.8444H13.8435C13.6348 11.9693 13.0008 12.9225 12.0476 13.5606V15.8187H14.9562C16.6579 14.252 17.6397 11.9448 17.6397 9.20396Z" fill="#4285F4"/>
<path fill-rule="evenodd" clip-rule="evenodd" d="M8.99989 17.999C11.4298 17.999 13.467 17.1931 14.9561 15.8186L12.0475 13.5605C11.2416 14.1005 10.2108 14.4196 8.99989 14.4196C6.65588 14.4196 4.67185 12.8364 3.96415 10.7092H0.957428V13.041C2.43829 15.9823 5.48182 17.999 8.99989 17.999Z" fill="#34A853"/>
<path fill-rule="evenodd" clip-rule="evenodd" d="M3.96426 10.7095C3.78427 10.1695 3.682 9.59272 3.682 8.99955C3.682 8.40639 3.78427 7.82959 3.96426 7.28961V4.95787H0.957546C0.348021 6.17283 0.000305176 7.54733 0.000305176 8.99955C0.000305176 10.4518 0.348021 11.8263 0.957546 13.0412L3.96426 10.7095Z" fill="#FBBC05"/>
<path fill-rule="evenodd" clip-rule="evenodd" d="M8.99989 3.57918C10.3212 3.57918 11.5075 4.03326 12.4402 4.92505L15.0215 2.34377C13.4629 0.891545 11.4257 -0.000244141 8.99989 -0.000244141C5.48182 -0.000244141 2.43829 2.01651 0.957428 4.95777L3.96415 7.28952C4.67185 5.16231 6.65588 3.57918 8.99989 3.57918Z" fill="#EA4335"/>
</svg>
